<svg width="146" height="38" viewBox="0 0 146 38" fill="none" xmlns="http://www.w3.org/2000/svg">
<path d="M36.5325 30.45V4.33904H46.8862C48.6511 4.33904 50.0956 4.69565 51.2198 5.40886C52.3562 6.10999 53.1963 7.01057 53.7403 8.11062C54.2963 9.21066 54.5744 10.347 54.5744 11.5195C54.5744 12.9581 54.2299 14.179 53.5408 15.1823C52.8639 16.1857 51.9391 16.8626 50.7665 17.2132V16.3065C52.4106 16.6813 53.6557 17.461 54.5018 18.6456C55.3601 19.8303 55.7893 21.1782 55.7893 22.6892C55.7893 24.2365 55.4931 25.5904 54.9008 26.7509C54.3084 27.9114 53.426 28.818 52.2534 29.4708C51.0929 30.1236 49.6544 30.45 47.9378 30.45H36.5325ZM40.9568 26.3339H47.3939C48.1554 26.3339 48.8384 26.1828 49.4429 25.8805C50.0473 25.5662 50.5187 25.1311 50.8572 24.575C51.2078 24.0068 51.383 23.3359 51.383 22.5623C51.383 21.8612 51.2319 21.2326 50.9297 20.6765C50.6275 20.1204 50.1863 19.6792 49.606 19.3528C49.0258 19.0143 48.3307 18.8451 47.5208 18.8451H40.9568V26.3339ZM40.9568 14.7653H46.8318C47.4604 14.7653 48.0225 14.6444 48.5181 14.4026C49.0137 14.1609 49.4066 13.8042 49.6967 13.3328C49.9868 12.8614 50.1319 12.2811 50.1319 11.5921C50.1319 10.6854 49.8418 9.92992 49.2615 9.3255C48.6813 8.72108 47.8714 8.41887 46.8318 8.41887H40.9568V14.7653ZM68.0599 30.9939C66.1016 30.9939 64.3911 30.5527 62.9284 29.6703C61.4657 28.7878 60.3294 27.5729 59.5195 26.0256C58.7216 24.4662 58.3227 22.6771 58.3227 20.6584C58.3227 18.6033 58.7337 16.8022 59.5557 15.2549C60.3777 13.7075 61.5201 12.4987 62.9828 11.6283C64.4455 10.758 66.1379 10.3228 68.0599 10.3228C70.0303 10.3228 71.7469 10.764 73.2096 11.6465C74.6723 12.5289 75.8086 13.7498 76.6185 15.3092C77.4284 16.8566 77.8334 18.6396 77.8334 20.6584C77.8334 22.6892 77.4224 24.4843 76.6004 26.0437C75.7904 27.591 74.6541 28.8059 73.1914 29.6884C71.7287 30.5587 70.0182 30.9939 68.0599 30.9939ZM68.0599 26.896C69.8006 26.896 71.0941 26.3157 71.9403 25.1552C72.7865 23.9948 73.2096 22.4958 73.2096 20.6584C73.2096 18.7605 72.7804 17.2494 71.9221 16.1252C71.0639 14.9889 69.7765 14.4208 68.0599 14.4208C66.8873 14.4208 65.9203 14.6867 65.1587 15.2186C64.4092 15.7384 63.8532 16.4697 63.4905 17.4126C63.1278 18.3434 62.9465 19.4253 62.9465 20.6584C62.9465 22.5562 63.3757 24.0733 64.2339 25.2096C65.1043 26.3339 66.3796 26.896 68.0599 26.896ZM82.1911 30.45V3.79506H86.5611V30.45H82.1911ZM99.844 30.9939C98.0429 30.9939 96.4714 30.5406 95.1296 29.634C93.7878 28.7274 92.7482 27.4943 92.0108 25.9349C91.2734 24.3755 90.9047 22.6167 90.9047 20.6584C90.9047 18.6759 91.2734 16.911 92.0108 15.3636C92.7603 13.8042 93.818 12.5773 95.184 11.6827C96.55 10.7761 98.1577 10.3228 100.007 10.3228C101.869 10.3228 103.428 10.7761 104.685 11.6827C105.955 12.5773 106.916 13.8042 107.569 15.3636C108.221 16.923 108.548 18.688 108.548 20.6584C108.548 22.6046 108.221 24.3634 107.569 25.9349C106.916 27.4943 105.943 28.7274 104.649 29.634C103.356 30.5406 101.754 30.9939 99.844 30.9939ZM100.515 27.0773C101.688 27.0773 102.63 26.8113 103.344 26.2795C104.069 25.7355 104.595 24.98 104.921 24.0129C105.26 23.0458 105.429 21.9276 105.429 20.6584C105.429 19.377 105.26 18.2588 104.921 17.3038C104.595 16.3368 104.081 15.5873 103.38 15.0554C102.679 14.5114 101.772 14.2394 100.66 14.2394C99.4874 14.2394 98.5204 14.5295 97.7588 15.1098C96.9972 15.6779 96.4351 16.4516 96.0725 17.4308C95.7098 18.3978 95.5285 19.4737 95.5285 20.6584C95.5285 21.8551 95.7038 22.9431 96.0543 23.9222C96.417 24.8893 96.967 25.6569 97.7044 26.2251C98.4418 26.7932 99.3786 27.0773 100.515 27.0773ZM105.429 30.45V16.7055H104.885V4.33904H109.291V30.45H105.429ZM123.024 30.9939C121.066 30.9939 119.355 30.5527 117.893 29.6703C116.43 28.7878 115.294 27.5729 114.484 26.0256C113.686 24.4662 113.287 22.6771 113.287 20.6584C113.287 18.6033 113.698 16.8022 114.52 15.2549C115.342 13.7075 116.484 12.4987 117.947 11.6283C119.41 10.758 121.102 10.3228 123.024 10.3228C124.995 10.3228 126.711 10.764 128.174 11.6465C129.637 12.5289 130.773 13.7498 131.583 15.3092C132.393 16.8566 132.798 18.6396 132.798 20.6584C132.798 22.6892 132.387 24.4843 131.565 26.0437C130.755 27.591 129.618 28.8059 128.156 29.6884C126.693 30.5587 124.983 30.9939 123.024 30.9939ZM123.024 26.896C124.765 26.896 126.058 26.3157 126.905 25.1552C127.751 23.9948 128.174 22.4958 128.174 20.6584C128.174 18.7605 127.745 17.2494 126.887 16.1252C126.028 14.9889 124.741 14.4208 123.024 14.4208C121.852 14.4208 120.885 14.6867 120.123 15.2186C119.374 15.7384 118.818 16.4697 118.455 17.4126C118.092 18.3434 117.911 19.4253 117.911 20.6584C117.911 22.5562 118.34 24.0733 119.198 25.2096C120.069 26.3339 121.344 26.896 123.024 26.896Z" fill="white"/>
<path d="M0.764648 16.45H15.0823C19.9656 16.45 23.9244 20.4087 23.9244 25.2921C23.9244 30.1754 19.9656 34.1342 15.0823 34.1342H0.764648V16.45Z" fill="white"/>
<path d="M0.764648 0.976318H10.2442C13.9067 0.976318 16.8758 3.94538 16.8758 7.6079C16.8758 11.2704 13.9067 14.2395 10.2442 14.2395H0.764648V0.976318Z" fill="white"/>
</svg>
