<svg width="146" height="38" viewBox="0 0 146 38" fill="none" xmlns="http://www.w3.org/2000/svg">
<path d="M36.1501 30.45V4.33904H46.5038C48.2687 4.33904 49.7133 4.69565 50.8375 5.40886C51.9738 6.10999 52.814 7.01057 53.3579 8.11062C53.914 9.21066 54.192 10.347 54.192 11.5195C54.192 12.9581 53.8475 14.179 53.1585 15.1823C52.4815 16.1857 51.5568 16.8626 50.3842 17.2132V16.3065C52.0282 16.6813 53.2733 17.461 54.1195 18.6456C54.9778 19.8303 55.4069 21.1782 55.4069 22.6892C55.4069 24.2365 55.1108 25.5904 54.5184 26.7509C53.9261 27.9114 53.0437 28.818 51.8711 29.4708C50.7106 30.1236 49.2721 30.45 47.5555 30.45H36.1501ZM40.5745 26.3339H47.0115C47.7731 26.3339 48.4561 26.1828 49.0605 25.8805C49.6649 25.5662 50.1364 25.1311 50.4749 24.575C50.8254 24.0068 51.0007 23.3359 51.0007 22.5623C51.0007 21.8612 50.8496 21.2326 50.5474 20.6765C50.2452 20.1204 49.804 19.6792 49.2237 19.3528C48.6435 19.0143 47.9484 18.8451 47.1385 18.8451H40.5745V26.3339ZM40.5745 14.7653H46.4494C47.078 14.7653 47.6401 14.6444 48.1358 14.4026C48.6314 14.1609 49.0243 13.8042 49.3144 13.3328C49.6045 12.8614 49.7496 12.2811 49.7496 11.5921C49.7496 10.6854 49.4594 9.92992 48.8792 9.3255C48.299 8.72108 47.489 8.41887 46.4494 8.41887H40.5745V14.7653ZM67.6776 30.9939C65.7193 30.9939 64.0088 30.5527 62.5461 29.6703C61.0834 28.7878 59.9471 27.5729 59.1371 26.0256C58.3393 24.4662 57.9404 22.6771 57.9404 20.6584C57.9404 18.6033 58.3514 16.8022 59.1734 15.2549C59.9954 13.7075 61.1378 12.4987 62.6005 11.6283C64.0632 10.758 65.7555 10.3228 67.6776 10.3228C69.648 10.3228 71.3645 10.764 72.8272 11.6465C74.2899 12.5289 75.4262 13.7498 76.2362 15.3092C77.0461 16.8566 77.451 18.6396 77.451 20.6584C77.451 22.6892 77.04 24.4843 76.218 26.0437C75.4081 27.591 74.2718 28.8059 72.8091 29.6884C71.3464 30.5587 69.6359 30.9939 67.6776 30.9939ZM67.6776 26.896C69.4183 26.896 70.7118 26.3157 71.558 25.1552C72.4041 23.9948 72.8272 22.4958 72.8272 20.6584C72.8272 18.7605 72.3981 17.2494 71.5398 16.1252C70.6815 14.9889 69.3941 14.4208 67.6776 14.4208C66.505 14.4208 65.5379 14.6867 64.7764 15.2186C64.0269 15.7384 63.4708 16.4697 63.1082 17.4126C62.7455 18.3434 62.5642 19.4253 62.5642 20.6584C62.5642 22.5562 62.9933 24.0733 63.8516 25.2096C64.722 26.3339 65.9973 26.896 67.6776 26.896ZM81.8088 30.45V3.79506H86.1788V30.45H81.8088ZM99.4617 30.9939C97.6606 30.9939 96.0891 30.5406 94.7473 29.634C93.4054 28.7274 92.3658 27.4943 91.6285 25.9349C90.8911 24.3755 90.5224 22.6167 90.5224 20.6584C90.5224 18.6759 90.8911 16.911 91.6285 15.3636C92.3779 13.8042 93.4357 12.5773 94.8017 11.6827C96.1676 10.7761 97.7754 10.3228 99.6249 10.3228C101.487 10.3228 103.046 10.7761 104.303 11.6827C105.572 12.5773 106.533 13.8042 107.186 15.3636C107.839 16.923 108.165 18.688 108.165 20.6584C108.165 22.6046 107.839 24.3634 107.186 25.9349C106.533 27.4943 105.56 28.7274 104.267 29.634C102.973 30.5406 101.372 30.9939 99.4617 30.9939ZM100.133 27.0773C101.305 27.0773 102.248 26.8113 102.961 26.2795C103.687 25.7355 104.212 24.98 104.539 24.0129C104.877 23.0458 105.047 21.9276 105.047 20.6584C105.047 19.377 104.877 18.2588 104.539 17.3038C104.212 16.3368 103.699 15.5873 102.998 15.0554C102.296 14.5114 101.39 14.2394 100.278 14.2394C99.1051 14.2394 98.138 14.5295 97.3765 15.1098C96.6149 15.6779 96.0528 16.4516 95.6901 17.4308C95.3275 18.3978 95.1462 19.4737 95.1462 20.6584C95.1462 21.8551 95.3215 22.9431 95.672 23.9222C96.0347 24.8893 96.5847 25.6569 97.3221 26.2251C98.0595 26.7932 98.9963 27.0773 100.133 27.0773ZM105.047 30.45V16.7055H104.503V4.33904H108.909V30.45H105.047ZM122.642 30.9939C120.684 30.9939 118.973 30.5527 117.51 29.6703C116.048 28.7878 114.911 27.5729 114.102 26.0256C113.304 24.4662 112.905 22.6771 112.905 20.6584C112.905 18.6033 113.316 16.8022 114.138 15.2549C114.96 13.7075 116.102 12.4987 117.565 11.6283C119.028 10.758 120.72 10.3228 122.642 10.3228C124.612 10.3228 126.329 10.764 127.792 11.6465C129.254 12.5289 130.391 13.7498 131.201 15.3092C132.01 16.8566 132.415 18.6396 132.415 20.6584C132.415 22.6892 132.004 24.4843 131.182 26.0437C130.372 27.591 129.236 28.8059 127.773 29.6884C126.311 30.5587 124.6 30.9939 122.642 30.9939ZM122.642 26.896C124.383 26.896 125.676 26.3157 126.522 25.1552C127.369 23.9948 127.792 22.4958 127.792 20.6584C127.792 18.7605 127.362 17.2494 126.504 16.1252C125.646 14.9889 124.359 14.4208 122.642 14.4208C121.469 14.4208 120.502 14.6867 119.741 15.2186C118.991 15.7384 118.435 16.4697 118.073 17.4126C117.71 18.3434 117.529 19.4253 117.529 20.6584C117.529 22.5562 117.958 24.0733 118.816 25.2096C119.686 26.3339 120.962 26.896 122.642 26.896Z" fill="white"/>
<path d="M0.382324 16.45H14.6999C19.5833 16.45 23.542 20.4087 23.542 25.2921C23.542 30.1754 19.5833 34.1342 14.6999 34.1342H0.382324V16.45Z" fill="white"/>
<path d="M0.382324 0.976318H9.86186C13.5244 0.976318 16.4934 3.94538 16.4934 7.6079C16.4934 11.2704 13.5244 14.2395 9.86186 14.2395H0.382324V0.976318Z" fill="white"/>
</svg>
