<svg width="148" height="37" viewBox="0 0 148 37" fill="none" xmlns="http://www.w3.org/2000/svg">
<g clip-path="url(#clip0_0_459)">
<g clip-path="url(#clip1_0_459)">
<path d="M10.0822 2.69273C10.0448 2.62059 10.022 2.54179 10.0151 2.46082C10.0082 2.37986 10.0173 2.29833 10.0419 2.22088C10.0664 2.14343 10.1061 2.07159 10.1584 2.00946C10.2108 1.94732 10.2749 1.89611 10.347 1.85876C12.5613 0.73277 15.021 0.175537 17.5043 0.237293C19.9876 0.29905 22.4165 0.977855 24.5721 2.21251C24.6428 2.25317 24.7048 2.30743 24.7544 2.37215C24.804 2.43687 24.8403 2.51078 24.8613 2.58962C24.8822 2.66845 24.8873 2.75065 24.8763 2.83146C24.8653 2.91228 24.8384 2.99012 24.7972 3.06049L17.6761 15.2818C17.6217 15.3754 17.5437 15.453 17.4499 15.5069C17.3561 15.5608 17.2497 15.5891 17.1415 15.589H17.1258C17.0149 15.586 16.9069 15.5534 16.8129 15.4946C16.7189 15.4358 16.6423 15.3529 16.5912 15.2545L10.0822 2.69273ZM16.7595 18.8483V18.8471L10.2503 6.28529C10.1747 6.13986 10.0446 6.03024 9.88851 5.98037C9.73238 5.9305 9.56285 5.94442 9.41695 6.0191C7.68218 6.90861 6.14015 8.13195 4.87938 9.61893C3.6186 11.1059 2.6639 12.8272 2.07006 14.6841C1.47622 16.541 1.25494 18.4969 1.41893 20.4395C1.58291 22.3821 2.12892 24.2732 3.02563 26.0043C3.92233 27.7353 5.15207 29.2722 6.64427 30.5268C8.13647 31.7814 9.86175 32.729 11.7211 33.3151C13.5804 33.9012 15.5372 34.1143 17.4791 33.9423C19.421 33.7702 21.3099 33.2164 23.0372 32.3125C23.1822 32.2365 23.2914 32.1062 23.3408 31.9501C23.3902 31.7939 23.3758 31.6246 23.3009 31.479L16.7595 18.8483ZM24.3895 30.7218L24.4391 30.8209C24.5139 30.967 24.6428 31.0781 24.7983 31.1306C24.8621 31.1517 24.9294 31.1601 24.9965 31.1553C25.0944 31.1526 25.1911 31.1316 25.2813 31.0934C25.5068 30.9817 25.726 30.8576 25.9378 30.7218C26.5678 30.3563 27.1683 29.9422 27.7338 29.4832H23.7454L24.3895 30.7218ZM23.1013 28.2445H29.084C29.4686 27.858 29.8246 27.4441 30.1492 27.0059H22.4572L23.1013 28.2445ZM21.8255 25.7673H31.0286C31.2823 25.3696 31.5099 24.9558 31.7099 24.5286H21.1814L21.8255 25.7673ZM20.5373 23.29H32.2549C32.4192 22.8856 32.5599 22.472 32.676 22.0513H19.8932L20.5373 23.29ZM19.2492 20.8127H32.9857C33.06 20.4039 33.1219 19.9952 33.1591 19.574H18.6174L19.2492 20.8127ZM25.8883 5.15627C25.8187 5.11304 25.7408 5.08515 25.6596 5.07447C25.5784 5.06379 25.4959 5.07056 25.4176 5.09434C25.3374 5.11266 25.2618 5.14744 25.1957 5.19648C25.1296 5.24552 25.0744 5.30775 25.0336 5.37922L24.6992 5.949H27.0898C26.7037 5.66346 26.3027 5.39883 25.8883 5.15627ZM28.5885 7.18764H23.9808L23.2624 8.42628H29.7652C29.3987 7.98967 29.0058 7.57601 28.5885 7.18764ZM30.6942 9.66492H22.5316L21.8131 10.9036H31.4498C31.2263 10.474 30.9738 10.0602 30.6942 9.66492ZM32.0443 12.1422H21.0947L20.3763 13.3808H32.5274C32.3901 12.9591 32.2288 12.5455 32.0443 12.1422ZM32.8742 14.6195H19.6455L18.9271 15.8581H33.0972C33.048 15.4411 32.9735 15.0275 32.8742 14.6195ZM33.221 17.0968H18.2087L17.9114 17.6046C17.8578 17.694 17.8284 17.796 17.8262 17.9002C17.824 18.0045 17.8491 18.1076 17.899 18.1992L17.9734 18.3354H33.2458C33.2582 18.2115 33.2582 18.0753 33.2582 17.9514C33.2582 17.6665 33.2458 17.3817 33.221 17.0968Z" fill="white"/>
<path d="M9.79773 5.40689C9.57069 4.97667 9.03631 4.80987 8.61948 5.06066C5.3196 7.04602 2.85421 10.1819 1.7108 13.8808C0.480431 17.8609 0.881557 22.1668 2.82594 25.8512C4.77032 29.5356 8.09867 32.2966 12.0788 33.527C15.7776 34.6704 19.7578 34.4048 23.259 32.801C23.7013 32.5984 23.8652 32.0631 23.6381 31.6329L16.7179 18.5199L9.79773 5.40689Z" fill="white"/>
</g>
<path d="M55.3585 6.48686C57.0799 6.48686 58.5464 6.76315 59.7578 7.31571C60.9692 7.86828 61.8936 8.66525 62.5312 9.70662C63.1688 10.748 63.4876 12.0125 63.4876 13.5002C63.4876 14.9879 63.1688 16.2524 62.5312 17.2938C61.8936 18.3351 60.9692 19.1321 59.7578 19.6847C58.5464 20.2372 57.0799 20.5135 55.3585 20.5135H51.1824V27.5269H45.6992V6.48686H55.3585ZM54.4978 16.4012C55.6454 16.4012 56.5061 16.1674 57.0799 15.6998C57.675 15.211 57.9726 14.4778 57.9726 13.5002C57.9726 12.5226 57.675 11.8 57.0799 11.3324C56.5061 10.8436 55.6454 10.5992 54.4978 10.5992H51.1824V16.4012H54.4978ZM66.6107 27.5269V11.5875H71.3925L71.6157 15.0304C72.0195 13.8402 72.6145 12.9157 73.4009 12.2569C74.2085 11.5981 75.2286 11.2687 76.4612 11.2687C76.865 11.2687 77.2051 11.3006 77.4814 11.3643C77.7789 11.4281 78.0127 11.5131 78.1827 11.6193L77.6408 16.0824C77.4282 15.9974 77.1519 15.9336 76.8119 15.8911C76.4931 15.8273 76.1 15.7955 75.6324 15.7955C74.9948 15.7955 74.3997 15.9336 73.8472 16.2099C73.2946 16.4862 72.8483 16.9006 72.5083 17.4532C72.1895 17.9845 72.0301 18.6646 72.0301 19.4934V27.5269H66.6107ZM87.9002 27.8456C86.1363 27.8456 84.6061 27.5162 83.3097 26.8574C82.0345 26.1986 81.0463 25.2528 80.345 24.0202C79.6436 22.7875 79.293 21.2999 79.293 19.5572C79.293 17.8145 79.6436 16.3268 80.345 15.0941C81.0463 13.8615 82.0239 12.9157 83.2778 12.2569C84.553 11.5981 86.0088 11.2687 87.6452 11.2687C89.3242 11.2687 90.7481 11.5981 91.917 12.2569C93.1071 12.8945 94.0103 13.7871 94.6267 14.9347C95.243 16.0611 95.5511 17.3575 95.5511 18.8239C95.5511 19.2065 95.5405 19.589 95.5193 19.9716C95.498 20.3541 95.4661 20.6729 95.4236 20.9279H82.7996V18.027H93.0327L90.4505 19.0152C90.4505 17.7401 90.2168 16.7625 89.7492 16.0824C89.3029 15.4023 88.6016 15.0623 87.6452 15.0623C86.9651 15.0623 86.3807 15.2216 85.8919 15.5404C85.4243 15.8592 85.063 16.3587 84.808 17.0387C84.5742 17.7188 84.4573 18.5902 84.4573 19.6528C84.4573 20.6942 84.5955 21.5443 84.8718 22.2031C85.148 22.8407 85.5412 23.3082 86.0513 23.6058C86.5613 23.882 87.1777 24.0202 87.9002 24.0202C88.7078 24.0202 89.3454 23.8608 89.813 23.542C90.3018 23.2232 90.6631 22.7769 90.8968 22.2031L95.2324 23.6376C94.9348 24.5515 94.4141 25.3272 93.6703 25.9648C92.9477 26.5811 92.0764 27.0487 91.0562 27.3675C90.0574 27.6862 89.0054 27.8456 87.9002 27.8456ZM105.277 27.8456C103.683 27.8456 102.196 27.5906 100.814 27.0806C99.4542 26.5492 98.3278 25.7948 97.4352 24.8172L99.9855 21.8206C100.517 22.5006 101.218 23.0745 102.09 23.542C102.982 23.9883 103.97 24.2115 105.054 24.2115C105.713 24.2115 106.255 24.1158 106.68 23.9246C107.105 23.7333 107.318 23.4357 107.318 23.0319C107.318 22.7344 107.211 22.5006 106.999 22.3306C106.786 22.1393 106.361 21.9799 105.724 21.8524L103.492 21.4061C101.494 21.0023 100.071 20.4073 99.2204 19.6209C98.3916 18.8133 97.9772 17.7613 97.9772 16.4649C97.9772 15.5936 98.2428 14.7647 98.7741 13.9784C99.3055 13.1708 100.124 12.5226 101.229 12.0338C102.334 11.5237 103.747 11.2687 105.469 11.2687C107.084 11.2687 108.508 11.5025 109.74 11.97C110.973 12.4376 111.951 13.1176 112.673 14.0103L110.091 16.9431C109.581 16.3055 108.922 15.8061 108.115 15.4448C107.307 15.0835 106.499 14.9029 105.692 14.9029C105.182 14.9029 104.746 14.956 104.385 15.0623C104.045 15.1473 103.79 15.2748 103.62 15.4448C103.45 15.6148 103.365 15.8273 103.365 16.0824C103.365 16.3587 103.492 16.6031 103.747 16.8156C104.024 17.0069 104.523 17.1769 105.246 17.3256L108.147 17.8995C109.783 18.197 110.962 18.7389 111.685 19.5253C112.408 20.3116 112.769 21.2574 112.769 22.3625C112.769 23.4039 112.493 24.339 111.94 25.1678C111.388 25.9967 110.559 26.6555 109.454 27.1443C108.348 27.6119 106.956 27.8456 105.277 27.8456ZM122.243 6.51874V21.8524C122.243 22.6175 122.424 23.1701 122.785 23.5101C123.168 23.8289 123.689 23.9883 124.347 23.9883C124.857 23.9883 125.293 23.9352 125.654 23.8289C126.037 23.7014 126.377 23.5208 126.675 23.287L127.248 26.6342C126.717 27.0168 126.048 27.3143 125.24 27.5269C124.432 27.7394 123.604 27.8456 122.753 27.8456C121.542 27.8456 120.49 27.6756 119.597 27.3356C118.726 26.9955 118.046 26.4536 117.557 25.7098C117.09 24.9659 116.845 23.9777 116.824 22.745V8.01704L122.243 6.51874ZM126.993 11.5875V15.4448H114.082V11.5875H126.993ZM137.084 11.2687C138.763 11.2687 140.229 11.5981 141.483 12.2569C142.758 12.8945 143.746 13.8402 144.448 15.0941C145.17 16.3268 145.532 17.8145 145.532 19.5572C145.532 21.2999 145.17 22.7982 144.448 24.0521C143.746 25.2847 142.758 26.2305 141.483 26.8893C140.229 27.5269 138.763 27.8456 137.084 27.8456C135.447 27.8456 133.991 27.5269 132.716 26.8893C131.441 26.2305 130.442 25.2847 129.72 24.0521C129.018 22.7982 128.668 21.2999 128.668 19.5572C128.668 17.8145 129.018 16.3268 129.72 15.0941C130.442 13.8402 131.441 12.8945 132.716 12.2569C133.991 11.5981 135.447 11.2687 137.084 11.2687ZM137.084 15.126C136.467 15.126 135.936 15.2748 135.49 15.5723C135.043 15.8698 134.703 16.348 134.47 17.0069C134.236 17.6657 134.119 18.5158 134.119 19.5572C134.119 20.5985 134.236 21.4486 134.47 22.1075C134.703 22.745 135.043 23.2232 135.49 23.542C135.936 23.8395 136.467 23.9883 137.084 23.9883C137.721 23.9883 138.263 23.8395 138.71 23.542C139.156 23.2232 139.496 22.745 139.73 22.1075C139.963 21.4486 140.08 20.5985 140.08 19.5572C140.08 18.5158 139.963 17.6657 139.73 17.0069C139.496 16.348 139.156 15.8698 138.71 15.5723C138.263 15.2748 137.721 15.126 137.084 15.126Z" fill="white"/>
</g>
<defs>
<clipPath id="clip0_0_459">
<rect width="146.513" height="41.2903" fill="white" transform="translate(0.922363 -4.47314)"/>
</clipPath>
<clipPath id="clip1_0_459">
<rect width="32.745" height="34.8351" fill="white" transform="translate(0.731201 -0.319336)"/>
</clipPath>
</defs>
</svg>
